<svg width="12" height="12" viewBox="0 0 12 12" fill="none" xmlns="http://www.w3.org/2000/svg">
    <path
        d="M6.28171 8.09534L5.99887 7.8125L5.71603 8.09534L3.33822 10.4731C2.83783 10.9735 2.02681 10.9744 1.5256 10.4731C1.02439 9.97194 1.02521 9.16091 1.5256 8.66052L3.90341 6.28272L4.18625 5.99987L3.90341 5.71703L1.52585 3.33948C1.02464 2.83827 1.02546 2.02724 1.52585 1.52685C2.02624 1.02647 2.83726 1.02565 3.33847 1.52685L5.71603 3.90441L5.99887 4.18725L6.28171 3.90441L8.66052 1.5256C9.16091 1.02521 9.97194 1.02439 10.4731 1.5256C10.9744 2.02681 10.9735 2.83783 10.4731 3.33822L8.09434 5.71703L7.81149 5.99987L8.09434 6.28272L10.4734 8.66178C10.9746 9.16299 10.9738 9.97401 10.4734 10.4744C9.97301 10.9748 9.16198 10.9756 8.66078 10.4744L6.28171 8.09534Z"
        fill="#5C5F62" stroke="#EDEDED" stroke-width="0.8" />
</svg>