<svg width="168" height="139" viewBox="0 0 168 139" fill="none" xmlns="http://www.w3.org/2000/svg">
    <path
        d="M85.2107 107.337C113.211 107.337 135.911 84.6367 135.911 56.5367C135.911 28.4367 113.111 5.73669 85.2107 5.73669C57.2107 5.73669 34.5107 28.4367 34.5107 56.5367C34.5107 84.6367 57.2107 107.337 85.2107 107.337Z"
        fill="#EAEEF9" />
    <path
        d="M132.611 23.2366C134.875 23.2366 136.711 21.401 136.711 19.1366C136.711 16.8723 134.875 15.0366 132.611 15.0366C130.346 15.0366 128.511 16.8723 128.511 19.1366C128.511 21.401 130.346 23.2366 132.611 23.2366Z"
        fill="#E7EBF6" />
    <path
        d="M138.611 7.23666C140.157 7.23666 141.411 5.98306 141.411 4.43666C141.411 2.89026 140.157 1.63666 138.611 1.63666C137.064 1.63666 135.811 2.89026 135.811 4.43666C135.811 5.98306 137.064 7.23666 138.611 7.23666Z"
        fill="#E7EBF6" />
    <path
        d="M37.2111 23.1366C38.7575 23.1366 40.0111 21.883 40.0111 20.3366C40.0111 18.7902 38.7575 17.5366 37.2111 17.5366C35.6647 17.5366 34.4111 18.7902 34.4111 20.3366C34.4111 21.883 35.6647 23.1366 37.2111 23.1366Z"
        fill="#E7EBF6" />
    <path
        d="M20.1111 77.1366C22.983 77.1366 25.3111 74.8085 25.3111 71.9366C25.3111 69.0648 22.983 66.7366 20.1111 66.7366C17.2393 66.7366 14.9111 69.0648 14.9111 71.9366C14.9111 74.8085 17.2393 77.1366 20.1111 77.1366Z"
        fill="#E7EBF6" />
    <path
        d="M85.1818 79.1738L83.4099 79.1486C83.0555 79.1435 82.7058 78.7844 82.7324 78.3472C82.7589 77.91 83.0349 77.5389 83.3892 77.5439L85.1612 77.5691C85.5155 77.5742 85.8653 77.9333 85.8387 78.3705C85.7902 78.8907 85.5362 79.1788 85.1818 79.1738Z"
        fill="#CED7E2" />
    <g filter="url(#filter0_d_91_19807)">
        <path
            d="M77.1584 32.4953L98.6427 76.6102C99.3608 78.1386 98.7266 79.9156 97.1985 80.6334L53.8669 101.096C52.3388 101.814 50.5619 101.18 49.8438 99.6512L22.9132 42.5552C22.1952 41.0268 22.8294 39.2498 24.3575 38.5319L55.7179 23.7654L77.1584 32.4953Z"
            fill="url(#paint0_linear_91_19807)" />
    </g>
    <path d="M55.7207 23.7598L61.4694 35.9943C62.3037 37.6773 64.4496 38.42 66.1304 37.5869L77.1603 32.5023"
        fill="#D5DDEA" />
    <g filter="url(#filter1_d_91_19807)">
        <path
            d="M115.212 36.9168L115.869 85.959C115.868 87.6468 114.537 88.9823 112.847 88.9789L64.9004 88.979C63.2111 88.9757 61.8728 87.6437 61.8738 85.9558L61.8168 22.8563C61.8179 21.1685 63.1491 19.833 64.8384 19.8364L99.5208 19.8753L115.212 36.9168Z"
            fill="url(#paint1_linear_91_19807)" />
    </g>
    <path d="M99.5381 19.8551L99.5241 33.3603C99.5615 35.2366 101.187 36.8223 103.064 36.786L115.217 36.8928"
        fill="#D5DDEA" />
    <g filter="url(#filter2_d_91_19807)">
        <path
            d="M145.39 58.679L125.373 103.483C124.707 104.994 122.842 105.655 121.35 104.904L77.8873 84.8538C76.3732 84.1859 75.7088 82.3217 76.3748 80.8102L102.788 23.5752C103.454 22.0637 105.319 21.403 106.811 22.1539L138.371 36.7391L145.39 58.679Z"
            fill="url(#paint2_linear_91_19807)" />
    </g>
    <path d="M138.287 36.6875L132.641 48.966C131.826 50.7051 132.695 52.8015 134.436 53.6182L145.381 58.6505"
        fill="#D5DDEA" />
    <defs>
        <filter id="filter0_d_91_19807" x="0.618164" y="12.7654" width="120.319" height="121.626"
            filterUnits="userSpaceOnUse" color-interpolation-filters="sRGB">
            <feFlood flood-opacity="0" result="BackgroundImageFix" />
            <feColorMatrix in="SourceAlpha" type="matrix" values="0 0 0 0 0 0 0 0 0 0 0 0 0 0 0 0 0 0 127 0"
                result="hardAlpha" />
            <feOffset dy="11" />
            <feGaussianBlur stdDeviation="11" />
            <feColorMatrix type="matrix" values="0 0 0 0 0.397708 0 0 0 0 0.47749 0 0 0 0 0.575 0 0 0 0.27 0" />
            <feBlend mode="normal" in2="BackgroundImageFix" result="effect1_dropShadow_91_19807" />
            <feBlend mode="normal" in="SourceGraphic" in2="effect1_dropShadow_91_19807" result="shape" />
        </filter>
        <filter id="filter1_d_91_19807" x="39.8164" y="8.83643" width="98.0527" height="113.143"
            filterUnits="userSpaceOnUse" color-interpolation-filters="sRGB">
            <feFlood flood-opacity="0" result="BackgroundImageFix" />
            <feColorMatrix in="SourceAlpha" type="matrix" values="0 0 0 0 0 0 0 0 0 0 0 0 0 0 0 0 0 0 127 0"
                result="hardAlpha" />
            <feOffset dy="11" />
            <feGaussianBlur stdDeviation="11" />
            <feColorMatrix type="matrix" values="0 0 0 0 0.397708 0 0 0 0 0.47749 0 0 0 0 0.575 0 0 0 0.27 0" />
            <feBlend mode="normal" in2="BackgroundImageFix" result="effect1_dropShadow_91_19807" />
            <feBlend mode="normal" in="SourceGraphic" in2="effect1_dropShadow_91_19807" result="shape" />
        </filter>
        <filter id="filter2_d_91_19807" x="54.1162" y="10.8428" width="113.273" height="127.372"
            filterUnits="userSpaceOnUse" color-interpolation-filters="sRGB">
            <feFlood flood-opacity="0" result="BackgroundImageFix" />
            <feColorMatrix in="SourceAlpha" type="matrix" values="0 0 0 0 0 0 0 0 0 0 0 0 0 0 0 0 0 0 127 0"
                result="hardAlpha" />
            <feOffset dy="11" />
            <feGaussianBlur stdDeviation="11" />
            <feColorMatrix type="matrix" values="0 0 0 0 0.397708 0 0 0 0 0.47749 0 0 0 0 0.575 0 0 0 0.27 0" />
            <feBlend mode="normal" in2="BackgroundImageFix" result="effect1_dropShadow_91_19807" />
            <feBlend mode="normal" in="SourceGraphic" in2="effect1_dropShadow_91_19807" result="shape" />
        </filter>
        <linearGradient id="paint0_linear_91_19807" x1="53.8995" y1="22.3164" x2="68.0744" y2="99.4208"
            gradientUnits="userSpaceOnUse">
            <stop stop-color="#FDFEFF" />
            <stop offset="0.9964" stop-color="#ECF0F5" />
        </linearGradient>
        <linearGradient id="paint1_linear_91_19807" x1="98.4918" y1="17.7895" x2="78.4253" y2="93.5151"
            gradientUnits="userSpaceOnUse">
            <stop stop-color="#FDFEFF" />
            <stop offset="0.9964" stop-color="#ECF0F5" />
        </linearGradient>
        <linearGradient id="paint2_linear_91_19807" x1="122.79" y1="24.4974" x2="102.554" y2="100.838"
            gradientUnits="userSpaceOnUse">
            <stop stop-color="#FDFEFF" />
            <stop offset="0.9964" stop-color="#ECF0F5" />
        </linearGradient>
    </defs>
</svg>