<svg width="20" height="21" viewBox="0 0 20 21" fill="none" xmlns="http://www.w3.org/2000/svg">
    <path
        d="M10.0003 4.66665C13.9123 4.66665 17.0837 7.83796 17.0837 11.75C17.0837 15.662 13.9123 18.8333 10.0003 18.8333C6.08831 18.8333 2.91699 15.662 2.91699 11.75C2.91699 7.83796 6.08831 4.66665 10.0003 4.66665ZM10.0003 5.91665C6.77866 5.91665 4.16699 8.52832 4.16699 11.75C4.16699 14.9716 6.77866 17.5833 10.0003 17.5833C13.222 17.5833 15.8337 14.9716 15.8337 11.75C15.8337 8.52832 13.222 5.91665 10.0003 5.91665ZM10.0003 7.16665C10.3167 7.16665 10.5782 7.40177 10.6196 7.70684L10.6253 7.79165V11.5416C10.6253 11.8868 10.3455 12.1666 10.0003 12.1666C9.68391 12.1666 9.42242 11.9315 9.38103 11.6265L9.37533 11.5416V7.79165C9.37533 7.44647 9.65515 7.16665 10.0003 7.16665ZM15.9563 4.7614L16.0252 4.81127L16.9905 5.61475C17.2558 5.83558 17.2919 6.22966 17.071 6.49497C16.8686 6.73816 16.5206 6.78872 16.2597 6.62537L16.1908 6.57551L15.2255 5.77202C14.9602 5.5512 14.9241 5.15712 15.1449 4.89181C15.3474 4.64862 15.6954 4.59805 15.9563 4.7614ZM11.8753 2.58331C12.2205 2.58331 12.5003 2.86314 12.5003 3.20831C12.5003 3.52473 12.2652 3.78622 11.9601 3.82761L11.8753 3.83331H8.12533C7.78015 3.83331 7.50033 3.55349 7.50033 3.20831C7.50033 2.8919 7.73545 2.6304 8.04052 2.58902L8.12533 2.58331H11.8753Z"
        fill="#5C5F62" />
</svg>